<svg width="301" viewBox="0 0 301 100" fill="none" xmlns="http://www.w3.org/2000/svg">
<g clip-path="url(#clip0_1_17)">
<path d="M62.7224 115.928L8.57836 88.668V69.868L62.7224 42.608L72.3104 61.972L34.1464 79.268L72.3104 96.564L62.7224 115.928ZM292.439 88.668L238.295 115.928L228.707 96.564L266.871 79.268L228.707 61.972L238.295 42.608L292.439 69.868V88.668Z" fill="url(#paint0_linear_1_17)"/>
<path d="M84.1367 11.4H108.953V53.7C111.71 51.1933 114.279 49.4387 116.661 48.436C119.167 47.4333 122.865 46.932 127.753 46.932H142.793C148.057 52.0707 152.193 58.7133 155.201 66.86C158.209 75.0067 159.713 83.968 159.713 93.744C159.713 114.675 153.446 131.093 140.913 143H123.053C116.911 143 111.773 140.681 107.637 136.044L104.253 143H84.1367V11.4ZM109.141 123.26H127.189C131.826 115.364 134.145 105.776 134.145 94.496C134.145 83.216 131.763 73.9413 127.001 66.672H109.141V123.26ZM173.368 143V46.932H191.228L195.928 57.084C200.941 50.316 207.27 46.932 214.916 46.932H222.248V72.124H198.372V143H173.368Z" fill="black"/>
</g>
<defs>
<linearGradient id="paint0_linear_1_17" x1="150.5" y1="22" x2="150.397" y2="134.012" gradientUnits="userSpaceOnUse">
<stop stop-color="#FF00E1"/>
<stop offset="1" stop-color="#464A08"/>
</linearGradient>
<clipPath id="clip0_1_17">
<rect width="301" height="337" fill="white"/>
</clipPath>
</defs>
</svg>
