<svg width="301" height="337" viewBox="0 0 301 337" fill="none" xmlns="http://www.w3.org/2000/svg">
<g clip-path="url(#clip0_1_17)">
<path d="M6.394 254V164.4H42.874C47.0553 165.936 50.7673 168.624 54.01 172.464C57.2527 176.304 58.874 180.955 58.874 186.416C58.874 196.059 55.7167 202.8 49.402 206.64V207.152C57.2527 211.504 61.178 218.331 61.178 227.632C61.178 238.299 55.7593 247.088 44.922 254H6.394ZM23.802 201.392H36.474C40.2287 199.088 42.106 195.589 42.106 190.896C42.106 186.203 40.3567 182.491 36.858 179.76H23.802V201.392ZM23.802 239.152H36.986C38.522 238.043 39.8873 236.293 41.082 233.904C42.362 231.515 43.002 229.125 43.002 226.736C43.002 224.347 42.49 222.171 41.466 220.208C40.442 218.245 39.162 216.795 37.626 215.856H23.802V239.152ZM70.519 164.4H104.567C109.943 166.192 114.508 169.52 118.263 174.384C122.103 179.163 124.023 185.051 124.023 192.048C124.023 203.483 119.5 211.888 110.455 217.264L123.383 254H105.463L94.583 221.36H87.799V254H70.519V164.4ZM87.799 179.76V207.024H98.807C100.258 206.683 101.836 205.232 103.543 202.672C105.335 200.027 106.231 196.955 106.231 193.456C106.231 189.957 105.463 186.885 103.927 184.24C102.476 181.595 101.026 180.101 99.575 179.76H87.799ZM162.257 254H143.569V224.176L124.625 164.4H142.033L149.969 191.664L152.657 207.408H153.169L155.857 191.664L163.793 164.4H181.201L162.257 224.176V254ZM219.163 254L216.475 239.792H196.251L193.563 254H176.155L193.435 164.4H219.931L236.315 254H219.163ZM206.107 181.04L201.115 210.864L198.299 226.096H214.299L211.355 210.864L206.363 181.04H206.107ZM283.705 254L259.769 204.464L259.129 204.72L259.897 219.824V254H243.769V164.4H256.697L280.249 215.856L280.889 215.6L279.481 199.856V164.4H295.609V254H283.705Z" fill="black"/>
<path d="M5.32339 329V281.988H14.0634L16.3634 286.956C18.8167 283.644 21.9141 281.988 25.6554 281.988H29.2434V294.316H17.5594V329H5.32339ZM60.7814 329H40.7254C34.5921 323.296 31.5254 315.507 31.5254 305.632C31.5254 300.664 32.2001 296.34 33.5494 292.66C34.9601 288.98 37.1681 285.423 40.1734 281.988H61.7014C64.8908 285.668 67.0681 289.256 68.2334 292.752C69.3988 296.187 69.9814 300.48 69.9814 305.632C69.9814 315.507 66.9148 323.296 60.7814 329ZM47.2574 319.34H54.2494C56.4574 315.047 57.5614 310.171 57.5614 304.712C57.5614 299.253 56.4268 294.899 54.1574 291.648H47.2574C45.0494 294.776 43.9454 299.223 43.9454 304.988C43.9454 310.692 45.0494 315.476 47.2574 319.34ZM76.5673 264.6H88.7113V285.3C90.0607 284.073 91.318 283.215 92.4833 282.724C93.71 282.233 95.5193 281.988 97.9113 281.988H105.271C107.847 284.503 109.871 287.753 111.343 291.74C112.815 295.727 113.551 300.112 113.551 304.896C113.551 315.139 110.485 323.173 104.351 329H95.6113C92.606 329 90.0913 327.865 88.0673 325.596L86.4113 329H76.5673V264.6ZM88.8033 319.34H97.6353C99.9047 315.476 101.039 310.784 101.039 305.264C101.039 299.744 99.874 295.205 97.5433 291.648H88.8033V319.34ZM120.142 329V281.988H132.286V329H120.142ZM120.142 264.6H132.286V277.02H120.142V264.6ZM160.601 281.988H170.353C173.051 285.423 174.891 288.857 175.873 292.292C176.854 295.727 177.345 300.02 177.345 305.172V329H165.109V304.252C165.109 298.425 164.311 294.224 162.717 291.648H152.413V329H140.177V281.988H149.745L151.401 285.3C152.75 284.073 154.007 283.215 155.173 282.724C156.399 282.233 158.209 281.988 160.601 281.988ZM189.519 281.988H209.851V291.648H195.499L204.239 304.62C208.164 310.201 210.342 314.035 210.771 316.12C211.016 317.101 211.139 318.113 211.139 319.156C211.139 323.511 209.514 326.792 206.263 329H182.803V319.34H199.639L189.795 304.896C189.366 304.221 188.691 303.271 187.771 302.044C186.912 300.817 186.238 299.836 185.747 299.1C185.256 298.303 184.919 297.72 184.735 297.352C184.551 296.984 184.306 296.524 183.999 295.972C183.692 295.359 183.478 294.837 183.355 294.408C183.11 293.243 182.987 292.292 182.987 291.556C182.987 287.079 185.164 283.889 189.519 281.988ZM244.153 329H224.097C217.963 323.296 214.897 315.507 214.897 305.632C214.897 300.664 215.571 296.34 216.921 292.66C218.331 288.98 220.539 285.423 223.545 281.988H245.073C248.262 285.668 250.439 289.256 251.605 292.752C252.77 296.187 253.353 300.48 253.353 305.632C253.353 315.507 250.286 323.296 244.153 329ZM230.629 319.34H237.621C239.829 315.047 240.933 310.171 240.933 304.712C240.933 299.253 239.798 294.899 237.529 291.648H230.629C228.421 294.776 227.317 299.223 227.317 304.988C227.317 310.692 228.421 315.476 230.629 319.34ZM280.362 281.988H290.114C292.813 285.423 294.653 288.857 295.634 292.292C296.616 295.727 297.106 300.02 297.106 305.172V329H284.87V304.252C284.87 298.425 284.073 294.224 282.478 291.648H272.174V329H259.938V281.988H269.506L271.162 285.3C272.512 284.073 273.769 283.215 274.934 282.724C276.161 282.233 277.97 281.988 280.362 281.988Z" fill="black"/>
<path d="M62.7224 115.928L8.57836 88.668V69.868L62.7224 42.608L72.3104 61.972L34.1464 79.268L72.3104 96.564L62.7224 115.928ZM292.439 88.668L238.295 115.928L228.707 96.564L266.871 79.268L228.707 61.972L238.295 42.608L292.439 69.868V88.668Z" fill="url(#paint0_linear_1_17)"/>
<path d="M84.1367 11.4H108.953V53.7C111.71 51.1933 114.279 49.4387 116.661 48.436C119.167 47.4333 122.865 46.932 127.753 46.932H142.793C148.057 52.0707 152.193 58.7133 155.201 66.86C158.209 75.0067 159.713 83.968 159.713 93.744C159.713 114.675 153.446 131.093 140.913 143H123.053C116.911 143 111.773 140.681 107.637 136.044L104.253 143H84.1367V11.4ZM109.141 123.26H127.189C131.826 115.364 134.145 105.776 134.145 94.496C134.145 83.216 131.763 73.9413 127.001 66.672H109.141V123.26ZM173.368 143V46.932H191.228L195.928 57.084C200.941 50.316 207.27 46.932 214.916 46.932H222.248V72.124H198.372V143H173.368Z" fill="black"/>
</g>
<defs>
<linearGradient id="paint0_linear_1_17" x1="150.5" y1="22" x2="150.397" y2="134.012" gradientUnits="userSpaceOnUse">
<stop stop-color="#FF00E1"/>
<stop offset="1" stop-color="#464A08"/>
</linearGradient>
<clipPath id="clip0_1_17">
<rect width="301" height="337" fill="white"/>
</clipPath>
</defs>
</svg>
